<?xml version="1.0" encoding="UTF-8" standalone="no"?>
<!DOCTYPE svg PUBLIC "-//W3C//DTD SVG 1.1//EN" "http://www.w3.org/Graphics/SVG/1.1/DTD/svg11.dtd">
<svg width="100%" height="100%" viewBox="0 0 32 32" version="1.1" xmlns="http://www.w3.org/2000/svg" xmlns:xlink="http://www.w3.org/1999/xlink" xml:space="preserve" xmlns:serif="http://www.serif.com/" style="fill-rule:evenodd;clip-rule:evenodd;stroke-linejoin:round;stroke-miterlimit:2;">
    <g transform="matrix(2.92603,0,0,3.00666,5.43328,-30.348)">
        <path d="M7.179,12.027L7.179,19.942C7.179,20.328 6.858,20.641 6.462,20.641L0.72,20.641C0.324,20.641 0.002,20.328 0.002,19.942L0.002,12.027C0.002,11.641 0.324,11.328 0.72,11.328L6.462,11.328C6.858,11.328 7.179,11.641 7.179,12.027ZM6.581,12.213C6.581,12.046 6.442,11.91 6.27,11.91L0.911,11.91C0.74,11.91 0.6,12.046 0.6,12.213L0.6,19.756C0.6,19.923 0.74,20.059 0.911,20.059L6.27,20.059C6.442,20.059 6.581,19.923 6.581,19.756L6.581,12.213ZM1.113,12.409L6.069,12.409L6.069,19.56L1.113,19.56L1.113,12.409Z" style="fill:url(#_Linear1);"/>
    </g>
    <g transform="matrix(0.867464,0,0,0.867464,2.93096,0.251417)">
        <path d="M19.234,20.626C20.181,21.654 20.761,23.026 20.761,24.532C20.761,27.714 18.178,30.296 14.997,30.296C11.815,30.296 9.233,27.714 9.233,24.532C9.233,21.351 11.815,18.768 14.997,18.768C15.077,18.768 15.158,18.77 15.238,18.773L14.38,21.129C12.765,21.42 11.538,22.834 11.538,24.532C11.538,26.441 13.088,27.991 14.997,27.991C16.905,27.991 18.455,26.441 18.455,24.532C18.455,23.896 18.283,23.299 17.982,22.787L19.234,20.626ZM13.844,15.739L16.677,9.503L14.176,9.503C13.989,9.503 13.814,9.413 13.706,9.261C13.598,9.109 13.57,8.914 13.631,8.738L17.09,0.098C17.17,-0.134 17.389,-0.29 17.634,-0.29L22.689,-0.29C22.886,-0.29 23.07,-0.189 23.175,-0.023C23.281,0.144 23.295,0.353 23.211,0.531C23.211,0.531 20.032,6.433 20.032,6.433L22.689,6.433C22.89,6.433 23.076,6.538 23.18,6.709C23.285,6.88 23.294,7.093 23.203,7.271L19.682,13.187L22.124,13.187C22.33,13.187 22.521,13.297 22.624,13.476C22.726,13.655 22.726,13.874 22.623,14.053L15.493,24.784C15.344,25.042 15.021,25.144 14.751,25.017C14.48,24.891 14.351,24.579 14.453,24.298L17.717,16.527L14.38,16.527C14.189,16.527 14.011,16.433 13.903,16.275C13.796,16.117 13.774,15.916 13.844,15.739Z" style="fill:url(#_Linear2);"/>
    </g>
    <defs>
        <linearGradient id="_Linear1" x1="0" y1="0" x2="1" y2="0" gradientUnits="userSpaceOnUse" gradientTransform="matrix(3.35415,5.66421,-5.82028,3.26421,0.00229699,11.3282)"><stop offset="0" style="stop-color:rgb(199,235,255);stop-opacity:1"/><stop offset="1" style="stop-color:rgb(82,175,229);stop-opacity:1"/></linearGradient>
        <linearGradient id="_Linear2" x1="0" y1="0" x2="1" y2="0" gradientUnits="userSpaceOnUse" gradientTransform="matrix(2.86285,-14.673,35.598,6.94552,14.9966,24.7535)"><stop offset="0" style="stop-color:rgb(242,235,13);stop-opacity:1"/><stop offset="1" style="stop-color:rgb(242,204,13);stop-opacity:1"/></linearGradient>
    </defs>
</svg>
